Coordinates
version=1
nRows=13
nColumns=27
inDegrees=yes

Units are S.I. units (second, meters, Newtons, ...)
If the header above contains a line with 'inDegrees', this indicates whether rotational values are in degrees (yes) or radians (no).

endheader
time	pelvis_rotation	pelvis_tilt	pelvis_list	pelvis_tx	pelvis_ty	pelvis_tz	hip_flexion_r	hip_adduction_r	hip_rotation_r	knee_angle_r	knee_rotation_r	knee_adduction_r	knee_angle_r_beta	ankle_angle_r	subtalar_angle_r	mtp_angle_r	hip_flexion_l	hip_adduction_l	hip_rotation_l	knee_angle_l	knee_rotation_l	knee_adduction_l	knee_angle_l_beta	ankle_angle_l	subtalar_angle_l	mtp_angle_l
      3.60000000	      4.40474410	    -19.44815862	     -4.57664002	      0.06099732	      0.82498202	     -1.14230192	     31.72993629	    -22.59648538	    -30.91503556	     26.05982530	      0.00000000	      1.32186256	      0.45482975	      0.66814918	      0.00000000	      0.00000000	     41.91438083	    -25.70169311	      2.00969286	     25.58781260	      0.00000000	      6.74250096	      0.44659158	     -1.06783858	      0.00000000	      0.00000000
      3.60500000	      4.22983169	    -19.79633510	     -4.17815099	      0.05957521	      0.82442876	     -1.14253855	     32.73302418	    -23.14728181	    -30.35319731	     26.77222836	      0.00000000	      1.40597106	      0.46726353	      0.86035833	      0.00000000	      0.00000000	     42.27649698	    -25.41849921	      1.65931227	     25.75784369	      0.00000000	      6.70609204	      0.44955918	     -1.11533413	      0.00000000	      0.00000000
      3.61000000	      4.16476907	    -20.19999851	     -3.92023510	      0.05818969	      0.82393922	     -1.14273563	     33.64688585	    -23.54544800	    -29.91516207	     27.35314518	      0.00000000	      1.43056223	      0.47740244	      0.96213287	      0.00000000	      0.00000000	     42.81872479	    -25.19454795	      1.58163057	     25.97794456	      0.00000000	      6.68826864	      0.45340067	     -1.14715137	      0.00000000	      0.00000000
      3.61500000	      2.98997220	    -20.71675751	     -3.02786901	      0.05574201	      0.82292177	     -1.14308538	     35.98622729	    -24.20789175	    -26.92155726	     28.62638349	      0.00000000	      0.73697001	      0.49962464	      1.33146595	      0.00000000	      0.00000000	     42.79372592	    -25.00448743	     -0.52157204	     26.16929980	      0.00000000	      6.18843430	      0.45674044	     -1.09717074	      0.00000000	      0.00000000
      3.62000000	      2.47279040	    -22.38368029	     -1.94948438	      0.05109656	      0.82124822	     -1.14371391	     39.63261858	    -25.38851383	    -24.64226413	     30.44537709	      0.00000000	      0.32959683	      0.53137207	      1.73472531	      0.00000000	      0.00000000	     44.55061941	    -24.19909250	     -0.93823441	     26.71352272	      0.00000000	      6.65294752	      0.46623893	     -1.22405204	      0.00000000	      0.00000000
      3.62500000	      3.45693584	    -21.52897058	     -2.59946732	      0.05298908	      0.82194705	     -1.14362065	     37.39131029	    -25.15420217	    -27.35122219	     29.65013372	      0.00000000	      1.40314290	      0.51749246	      1.42084413	      0.00000000	      0.00000000	     44.19513321	    -24.34670782	      0.30499381	     26.60973854	      0.00000000	      6.55465561	      0.46442755	     -1.27372229	      0.00000000	      0.00000000
      3.63000000	      2.81063177	    -21.98000817	     -1.88526813	      0.05082131	      0.82111904	     -1.14407869	     39.16792806	    -25.74218475	    -25.48444193	     30.59616699	      0.00000000	      1.18453971	      0.53400385	      1.58010234	      0.00000000	      0.00000000	     44.35363335	    -24.04773671	     -0.85796397	     26.74550269	      0.00000000	      6.44729250	      0.46679708	     -1.31628485	      0.00000000	      0.00000000
      3.63500000	      2.92583667	    -22.45573874	     -1.56031316	      0.04918079	      0.82042387	     -1.14439002	     40.16372155	    -26.25313825	    -25.25094276	     31.22621118	      0.00000000	      1.36292183	      0.54500020	      1.67765124	      0.00000000	      0.00000000	     45.10048232	    -23.72545680	     -0.79847851	     27.05357135	      0.00000000	      6.41446038	      0.47217389	     -1.34844688	      0.00000000	      0.00000000
      3.64000000	      2.20921506	    -23.11031819	     -0.77993600	      0.04650037	      0.81937617	     -1.14483758	     42.37707729	    -26.80105647	    -23.03692162	     32.29301973	      0.00000000	      1.03802732	      0.56361952	      1.84906272	      0.00000000	      0.00000000	     45.50014677	    -23.42577611	     -2.02569631	     27.27978559	      0.00000000	      6.31797147	      0.47612208	     -1.40988845	      0.00000000	      0.00000000
      3.64500000	      1.85162817	    -23.60196428	     -0.12213493	      0.04438460	      0.81848453	     -1.14535488	     44.01068263	    -27.35541753	    -21.64404077	     33.13234554	      0.00000000	      0.99070598	      0.57826852	      1.91401241	      0.00000000	      0.00000000	     45.89705255	    -23.07882935	     -2.83120029	     27.49875189	      0.00000000	      6.22576073	      0.47994376	     -1.44129220	      0.00000000	      0.00000000
      3.65000000	      1.72000230	    -24.06445270	      0.21862638	      0.04254704	      0.81771799	     -1.14561555	     45.21939808	    -27.66680736	    -20.80432564	     33.73907154	      0.00000000	      0.97997247	      0.58885788	      1.97015996	      0.00000000	      0.00000000	     46.51201444	    -22.90116899	     -3.14896727	     27.79866429	      0.00000000	      6.08162456	      0.48517822	     -1.46950645	      0.00000000	      0.00000000
      3.65500000	      1.62682207	    -24.40173153	      0.69207071	      0.04090393	      0.81693183	     -1.14602443	     46.33966181	    -28.13375658	    -20.05229687	     34.38113248	      0.00000000	      1.12964371	      0.60006396	      2.02671723	      0.00000000	      0.00000000	     46.91971006	    -22.61748220	     -3.61258739	     28.03514498	      0.00000000	      5.91173114	      0.48930559	     -1.50620950	      0.00000000	      0.00000000
      3.66000000	      1.45870748	    -24.69270089	      1.20642376	      0.03931551	      0.81610448	     -1.14645515	     47.48875837	    -28.59410213	    -19.17940821	     35.02871990	      0.00000000	      1.28022468	      0.61136650	      2.06589449	      0.00000000	      0.00000000	     47.21258990	    -22.35118803	     -4.24950656	     28.25073177	      0.00000000	      5.70176359	      0.49306829	     -1.51319540	      0.00000000	      0.00000000
